Eastern Promises (2007) [BDRip1080p][Nautilus-BT]
Join www.nautilus-bt.org

[img]http://img156.imageshack.us/img156/6630/easternpromisesbluray95.jpg[/img]

Link IMDb : http://www.imdb.com/title/tt0765443/

A Russian teenager living in London who dies during childbirth leaves clues to a midwife in her journal that could tie her child to a rape involving a violent Russian mob family.

[img]http://img130.imageshack.us/img130/8467/assassinoeasternpromise.jpg[/img]

[img]http://img137.imageshack.us/img137/8467/assassinoeasternpromise.jpg[/img]

[img]http://img263.imageshack.us/img263/8467/assassinoeasternpromise.jpg[/img]

[img]http://img12.imageshack.us/img12/8467/assassinoeasternpromise.jpg[/img]

[img]http://img8.imageshack.us/img8/8467/assassinoeasternpromise.jpg[/img]

[img]http://img153.imageshack.us/img153/8467/assassinoeasternpromise.jpg[/img]


Italian title : La promessa dell'assassino
Original title : Eastern Promises
Release date : 2007
Genre : thriller - drama
Country : USA - UK - Canada
Written by : Steven Knight
Directed by : David Cronenberg


Languages : Italian - English
Subtitle : Italian
Chapters : yes


[img]http://img156.imageshack.us/img156/6961/promessaassassinoquanta.png[/img]


General
Complete name                    : I:\La promessa dell'assassino - Eastern Promises (2007) [BDRip1080p Ita-Eng] by Pitt@Sk8.mkv
Format                           : Matroska
File size                        : 4.38 GiB
Duration                         : 1h 40mn
Overall bit rate                 : 6 233 Kbps
Encoded date                     : UTC 2011-01-30 13:58:21
Writing application              : mkvmerge v4.4.0 ('Die Wiederkehr') built on Oct 31 2010 21:52:48
Writing library                  : libebml v1.0.0 + libmatroska v1.0.0

Video
ID                               : 1
Format                           : AVC
Format/Info                      : Advanced Video Codec
Format profile                   : High@L4.1
Format settings, CABAC           : Yes
Format settings, ReFrames        : 3 frames
Muxing mode                      : Container profile=Unknown@4.1
Codec ID                         : V_MPEG4/ISO/AVC
Duration                         : 1h 40mn
Bit rate mode                    : Variable
Bit rate                         : 4 950 Kbps
Maximum bit rate                 : 40.0 Mbps
Width                            : 1 920 pixels
Height                           : 1 038 pixels
Display aspect ratio             : 1.850
Frame rate                       : 23.976 fps
Color space                      : YUV
Chroma subsampling               : 4:2:0
Bit depth                        : 8 bits
Scan type                        : Progressive
Bits/(Pixel*Frame)               : 0.104
Stream size                      : 3.39 GiB (77%)
Title                            : BDRip1080p by Pitt@Sk8
Writing library                  : x264 core 112 r1867 22bfd31
Encoding settings                : cabac=1 / ref=3 / deblock=1:0:0 / analyse=0x3:0x133 / me=hex / subme=7 / psy=1 / psy_rd=1.00:0.00 / mixed_ref=1 / me_range=16 / chroma_me=1 / trellis=1 / 8x8dct=1 / cqm=0 / deadzone=21,11 / fast_pskip=1 / chroma_qp_offset=-2 / threads=6 / sliced_threads=0 / slices=4 / nr=0 / decimate=1 / interlaced=0 / constrained_intra=0 / bframes=3 / b_pyramid=1 / b_adapt=1 / b_bias=0 / direct=1 / weightb=1 / open_gop=2 / weightp=2 / keyint=240 / keyint_min=23 / scenecut=40 / intra_refresh=0 / rc_lookahead=40 / rc=2pass / mbtree=1 / bitrate=4950 / ratetol=1.0 / qcomp=0.60 / qpmin=10 / qpmax=51 / qpstep=4 / cplxblur=20.0 / qblur=0.5 / vbv_maxrate=40000 / vbv_bufsize=40000 / nal_hrd=vbr / ip_ratio=1.40 / aq=1:1.00

Audio #1
ID                               : 2
Format                           : AC-3
Format/Info                      : Audio Coding 3
Mode extension                   : CM (complete main)
Codec ID                         : A_AC3
Duration                         : 1h 40mn
Bit rate mode                    : Constant
Bit rate                         : 640 Kbps
Channel(s)                       : 6 channels
Channel positions                : Front: L C R, Side: L R, LFE
Sampling rate                    : 48.0 KHz
Bit depth                        : 16 bits
Stream size                      : 460 MiB (10%)
Title                            : Italiano AC3 5.1 640 kbps - Pitt@Sk8
Language                         : Italian

Audio #2
ID                               : 3
Format                           : AC-3
Format/Info                      : Audio Coding 3
Mode extension                   : CM (complete main)
Codec ID                         : A_AC3
Duration                         : 1h 40mn
Bit rate mode                    : Constant
Bit rate                         : 640 Kbps
Channel(s)                       : 6 channels
Channel positions                : Front: L C R, Side: L R, LFE
Sampling rate                    : 48.0 KHz
Bit depth                        : 16 bits
Stream size                      : 460 MiB (10%)
Title                            : English AC3 5.1 640 kbps - Pitt@Sk8
Language                         : English

Text #1
ID                               : 4
Format                           : UTF-8
Codec ID                         : S_TEXT/UTF8
Codec ID/Info                    : UTF-8 Plain Text
Title                            : Vuoto - Pitt@Sk8
Language                         : Italian

Text #2
ID                               : 5
Format                           : VobSub
Codec ID                         : S_VOBSUB
Codec ID/Info                    : The same subtitle format used on DVDs
Title                            : Sottotitoli - Italiano
Language                         : Italian

Menu
00:00:00.000                     : en:Capitolo 01- Pitt@Sk8
00:12:17.487                     : en:Capitolo 02- Pitt@Sk8
00:18:47.126                     : en:Capitolo 03- Pitt@Sk8
00:25:29.153                     : en:Capitolo 04- Pitt@Sk8
00:32:26.278                     : en:Capitolo 05- Pitt@Sk8
00:43:23.684                     : en:Capitolo 06- Pitt@Sk8
00:50:32.863                     : en:Capitolo 07- Pitt@Sk8
01:04:24.194                     : en:Capitolo 08- Pitt@Sk8
01:12:46.279                     : en:Capitolo 09- Pitt@Sk8
01:20:57.311                     : en:Capitolo 10- Pitt@Sk8
01:27:27.909                     : en:Capitolo 11- Pitt@Sk8
01:33:57.090                     : en:Capitolo 12- Pitt@Sk8

Join www.nautilus-bt.org
